<svg xmlns="http://www.w3.org/2000/svg" height="28" viewBox="0 0 28 28" width="28">
      <circle cx="14" cy="14" r="14" fill="white"/>
      <path d="M24.56 14.25c0-.78-.07-1.53-.2-2.25H14v4.26h5.92c-.26 1.37-1.04 2.53-2.21 3.31v2.77h3.57c2.08-1.92 3.28-4.74 3.28-8.09z"
              fill="#4285F4"/>
      <path d="M14 25c2.97 0 5.46-.98 7.28-2.66l-3.57-2.77c-.98.66-2.23 1.06-3.71 1.06-2.86 0-5.29-1.93-6.16-4.53H4.18v2.84C5.99 22.53 9.7 25 14 25z"
              fill="#34A853"/>
      <path d="M7.84 16.09c-.22-.66-.35-1.36-.35-2.09s.13-1.43.35-2.09V9.07H4.18C3.43 10.55 3 12.22 3 14s.43 3.45 1.18 4.93l2.85-2.22.81-.62z"
              fill="#FBBC05"/>
      <path d="M14 7.38c1.62 0 3.06.56 4.21 1.64l3.15-3.15C19.45 4.09 16.97 3 14 3 9.7 3 5.99 5.47 4.18 9.07l3.66 2.84c.87-2.6 3.3-4.53 6.16-4.53z"
              fill="#EA4335"/>
      <path d="M3 3h22v22H3z" fill="none"/>
</svg>