<?xml version="1.0" encoding="UTF-8" ?>
<!DOCTYPE svg PUBLIC "-//W3C//DTD SVG 1.1//EN" "http://www.w3.org/Graphics/SVG/1.1/DTD/svg11.dtd">
<svg width="1236pt" height="1236pt" viewBox="0 0 1236 1236" version="1.1" xmlns="http://www.w3.org/2000/svg">
    <g id="#343434ff">
        <path fill="#343434" opacity="1.00"
              d=" M 746.01 145.60 C 753.07 145.78 759.97 143.94 767.01 143.73 C 768.64 143.70 769.81 145.09 770.97 146.06 C 797.12 172.24 823.35 198.33 849.55 224.46 C 857.42 231.23 864.42 238.92 871.87 246.13 C 904.58 278.76 937.34 311.34 970.03 343.99 C 975.22 349.46 981.20 354.13 986.04 359.96 C 995.93 368.71 1004.91 378.42 1014.40 387.61 C 1037.40 410.61 1060.48 433.52 1083.49 456.51 C 1086.26 459.29 1089.34 461.83 1091.41 465.21 C 1069.68 466.49 1048.04 468.59 1026.31 469.70 C 1018.91 470.66 1011.47 471.65 1003.99 471.41 C 996.92 471.16 990.05 473.31 983.00 473.30 C 976.30 473.23 969.70 474.71 963.00 474.41 C 956.06 474.09 949.21 476.18 942.29 475.34 C 942.34 537.23 942.31 599.13 942.30 661.02 C 942.05 664.93 945.46 667.57 947.47 670.55 C 957.82 684.73 968.30 698.83 978.59 713.04 C 967.27 728.84 955.59 744.40 944.17 760.13 C 941.13 763.93 938.61 768.33 935.12 771.59 C 925.69 758.22 915.73 745.14 906.10 731.88 C 901.64 725.52 896.61 719.56 892.46 712.99 C 902.76 698.53 913.40 684.29 923.95 669.99 C 925.63 667.43 928.50 665.22 928.61 661.95 C 928.71 600.38 928.45 538.78 928.75 477.21 C 923.07 477.62 917.34 477.09 911.70 477.92 C 902.20 479.47 892.55 479.45 883.00 480.40 C 872.61 479.75 862.45 482.55 852.08 482.46 C 846.72 482.86 841.37 483.68 835.98 483.40 C 830.77 483.16 825.67 484.68 820.48 484.32 C 830.09 457.85 840.01 431.36 849.82 404.91 C 850.86 401.40 853.83 397.66 851.96 393.96 C 832.21 354.74 801.69 320.91 764.46 297.58 C 741.86 283.07 716.70 272.73 690.56 266.67 C 683.63 265.68 677.00 263.15 669.95 263.07 C 663.10 261.38 656.04 261.30 649.06 260.50 C 632.69 260.33 616.13 259.92 600.03 263.24 C 593.98 263.41 588.18 265.24 582.28 266.36 C 571.09 269.10 559.86 271.85 549.19 276.27 C 545.56 277.93 540.43 278.52 539.04 282.92 C 529.11 309.95 518.87 336.85 509.09 363.94 C 508.81 365.53 507.21 366.45 507.17 368.12 C 501.99 362.54 495.84 357.90 490.76 352.21 C 448.31 310.35 406.27 268.06 363.95 226.06 C 355.69 219.00 348.62 210.72 340.64 203.36 C 331.81 194.46 322.84 185.70 314.07 176.75 C 317.77 175.09 322.01 175.68 326.02 175.56 C 332.74 175.68 339.29 173.82 346.00 173.73 C 353.02 173.72 359.97 172.24 367.01 172.60 C 372.39 172.77 377.68 171.46 383.06 171.50 C 388.73 171.55 394.29 170.20 399.94 169.86 C 405.38 169.32 410.86 169.92 416.28 169.11 C 420.16 168.45 424.09 168.57 428.00 168.43 C 447.94 165.99 468.04 165.40 488.04 163.64 C 497.70 162.99 507.34 162.31 516.99 161.60 C 524.06 162.09 531.00 160.28 538.05 160.52 C 543.39 160.58 548.62 159.24 553.93 158.87 C 560.94 158.38 568.00 158.86 574.96 157.65 C 582.35 157.84 589.62 156.34 597.00 156.43 C 604.65 155.67 612.28 154.27 620.01 154.59 C 628.98 154.56 637.77 152.30 646.76 152.50 C 655.78 151.12 664.95 152.12 673.97 150.65 C 685.68 150.44 697.28 148.45 709.00 148.44 C 714.68 147.95 720.29 146.83 726.01 146.68 C 732.70 146.68 739.30 145.25 746.01 145.60 Z"/>
        <path fill="#343434" opacity="1.00"
              d=" M 554.56 290.51 C 579.51 280.62 606.20 275.43 632.99 274.67 C 661.57 274.63 690.25 279.62 716.95 289.89 C 743.22 300.21 767.54 315.51 788.13 334.82 C 794.40 339.88 799.36 346.28 804.88 352.11 C 815.66 364.71 824.97 378.52 833.01 393.02 C 833.42 394.21 834.62 395.50 834.01 396.80 C 821.28 430.82 808.64 464.87 796.11 498.96 C 795.81 500.52 794.21 501.41 794.16 503.06 C 791.45 499.70 788.81 496.27 785.99 493.00 C 767.93 471.53 744.68 454.84 719.65 442.42 C 695.98 430.61 670.48 422.79 644.57 417.70 C 634.10 415.74 623.63 413.45 612.95 413.06 C 607.65 412.21 602.36 411.24 596.97 411.34 C 585.70 409.75 574.31 410.71 562.99 410.02 C 555.33 409.30 547.67 410.51 540.00 410.32 C 531.00 410.00 522.11 411.60 513.13 411.60 C 511.56 411.54 509.99 411.75 508.48 412.13 C 508.60 411.40 508.84 409.92 508.96 409.18 C 522.82 371.99 536.65 334.77 550.37 297.53 C 551.55 295.13 551.77 291.62 554.56 290.51 Z"/>
    </g>
    <g id="#ff9501ff">
        <path fill="#ff9501" opacity="1.00"
              d=" M 523.95 425.65 C 528.97 425.68 533.97 425.40 538.95 424.68 C 551.63 424.40 564.32 424.65 577.01 424.56 C 582.03 424.41 586.95 425.76 591.98 425.58 C 597.91 425.39 603.78 426.47 609.64 427.24 C 622.35 427.85 634.81 430.54 647.13 433.60 C 663.04 436.75 678.49 441.84 693.79 447.11 C 698.36 449.79 703.23 451.80 708.17 453.70 C 724.76 461.74 740.48 471.58 754.78 483.21 C 759.94 489.06 765.85 494.21 770.66 500.38 C 774.22 504.52 778.57 508.01 781.32 512.82 C 784.71 518.73 789.47 523.85 791.93 530.29 C 794.06 536.44 798.25 541.61 800.42 547.75 C 805.04 557.13 806.78 567.54 809.65 577.53 C 812.52 586.75 813.49 596.40 814.42 605.97 C 814.50 617.31 814.47 628.66 814.50 640.01 C 814.11 647.05 812.59 653.97 812.34 661.03 C 811.68 665.73 811.65 670.55 810.28 675.13 C 806.49 686.75 804.09 698.85 799.14 710.07 C 794.13 719.57 789.34 729.22 783.02 737.96 C 779.62 743.48 775.48 748.48 771.76 753.78 C 769.00 757.91 765.06 761.07 762.09 765.05 C 759.28 768.88 755.63 771.95 752.37 775.37 C 746.32 781.33 740.59 787.65 733.79 792.78 C 729.73 797.47 724.42 800.77 720.11 805.19 C 712.56 811.27 705.28 817.72 697.53 823.53 C 693.85 826.55 690.73 830.20 686.69 832.77 C 681.17 838.56 675.53 844.24 669.80 849.82 C 661.31 856.60 656.95 866.88 650.28 875.20 C 639.61 894.20 633.08 915.41 630.27 936.99 C 627.56 945.96 628.74 955.77 625.27 964.53 C 574.39 964.32 523.48 964.68 472.60 964.35 C 472.49 959.53 473.89 954.82 473.56 950.00 C 473.32 940.99 473.67 931.97 475.00 923.06 C 477.93 913.87 477.42 904.08 479.35 894.68 C 481.29 887.49 482.11 880.01 484.82 873.03 C 487.93 859.94 492.82 847.40 497.83 834.96 C 499.32 830.71 502.08 827.05 503.66 822.84 C 505.58 818.01 508.68 813.83 511.37 809.44 C 515.73 801.36 521.05 793.87 526.59 786.57 C 530.88 781.85 534.92 776.92 538.84 771.89 C 541.09 768.83 544.46 766.86 546.90 763.97 C 549.92 760.31 552.48 756.21 556.24 753.25 C 558.72 751.32 560.20 748.53 562.17 746.16 C 572.58 736.13 580.64 724.02 589.92 712.98 C 592.75 709.41 595.30 705.64 597.77 701.83 C 601.67 694.45 606.78 687.68 609.48 679.70 C 610.70 675.71 613.17 672.15 613.71 667.95 C 614.49 662.27 616.95 656.84 616.63 651.03 C 616.53 645.93 618.08 640.88 617.21 635.79 C 616.11 630.41 617.03 624.89 616.25 619.47 C 614.05 607.62 610.00 595.91 602.82 586.13 C 600.34 583.62 597.62 581.36 595.20 578.79 C 590.52 573.79 583.75 571.83 578.21 568.02 C 573.08 566.71 567.84 565.88 562.72 564.55 C 555.94 562.82 548.91 563.68 542.00 563.42 C 535.77 563.24 529.55 564.13 523.54 565.77 C 514.19 569.83 504.43 573.77 497.03 581.03 C 493.44 584.17 490.77 588.16 488.36 592.24 C 482.71 600.66 478.84 610.14 476.13 619.88 C 472.45 629.16 472.62 639.27 471.16 649.00 C 470.27 654.67 470.41 660.44 470.08 666.15 C 467.10 665.95 464.05 666.73 461.00 666.38 C 404.00 666.35 347.00 666.35 290.00 666.38 C 286.88 666.17 283.42 667.08 280.59 665.44 C 279.98 656.13 281.41 646.81 282.23 637.54 C 283.63 630.69 283.43 623.55 285.80 616.90 C 287.46 610.48 288.35 603.87 290.42 597.55 C 293.28 588.28 295.54 578.76 299.90 570.04 C 301.90 562.68 306.39 556.45 309.27 549.46 C 311.65 543.80 315.96 539.27 318.65 533.77 C 320.96 528.96 325.00 525.36 327.74 520.83 C 330.53 515.78 335.39 512.36 338.46 507.50 C 346.93 496.94 357.91 488.80 368.29 480.25 C 378.51 472.91 389.10 466.09 400.04 459.90 C 404.37 458.05 408.58 455.97 412.66 453.62 C 416.45 451.51 420.70 450.45 424.54 448.44 C 429.86 445.54 436.03 444.86 441.47 442.23 C 447.10 439.55 453.43 439.12 459.25 436.99 C 465.32 435.59 471.27 433.46 477.55 433.22 C 482.92 431.71 488.16 429.48 493.86 429.51 C 503.79 427.50 513.90 426.86 523.95 425.65 Z"/>
        <path fill="#ff9501" opacity="1.00"
              d=" M 540.28 987.98 C 552.97 986.33 565.63 988.55 578.14 990.53 C 582.71 992.18 587.55 993.05 592.05 994.95 C 599.90 999.17 608.05 1003.17 614.56 1009.40 C 617.46 1012.16 620.12 1015.19 623.28 1017.68 C 626.27 1019.86 627.79 1023.33 629.79 1026.33 C 635.14 1034.29 639.06 1043.16 641.85 1052.32 C 644.18 1059.33 644.89 1066.72 646.29 1073.95 C 646.28 1080.98 647.02 1088.16 645.22 1095.05 C 643.99 1105.00 641.06 1114.70 636.91 1123.81 C 634.90 1127.76 633.31 1132.00 630.41 1135.41 C 626.94 1139.93 623.99 1144.88 619.78 1148.79 C 614.10 1153.90 608.26 1158.95 601.33 1162.34 C 594.74 1167.06 586.74 1168.66 579.34 1171.60 C 575.01 1172.62 570.52 1172.56 566.19 1173.59 C 559.89 1175.02 553.41 1174.33 547.01 1174.55 C 542.30 1174.75 537.71 1173.42 533.00 1173.45 C 528.44 1173.54 524.51 1170.68 520.02 1170.25 C 511.96 1168.99 505.50 1163.62 497.89 1161.11 C 495.09 1158.97 492.88 1156.10 489.90 1154.16 C 485.66 1151.49 482.68 1147.36 478.88 1144.18 C 476.81 1142.49 475.12 1140.38 473.76 1138.10 C 470.80 1132.74 466.44 1128.08 464.77 1122.07 C 463.24 1116.65 460.94 1111.46 459.77 1105.95 C 459.52 1101.88 458.67 1097.90 457.64 1093.98 C 457.35 1087.65 457.56 1081.32 457.48 1075.00 C 457.42 1069.90 459.12 1065.02 459.40 1059.96 C 460.26 1051.84 463.78 1044.39 466.71 1036.87 C 468.90 1031.94 472.21 1027.63 475.13 1023.12 C 479.91 1017.59 485.44 1012.75 490.13 1007.15 C 495.99 1002.72 502.60 999.31 509.16 996.02 C 512.84 994.05 517.02 993.35 520.88 991.82 C 526.96 989.04 533.84 989.39 540.28 987.98 Z"/>
    </g>
</svg>
